<svg xmlns="http://www.w3.org/2000/svg" viewBox="0 0 64 64" id="Planet"><g color="#000" transform="translate(0 -988.362)" fill="#167ffc" class="color000000 svgShape"><circle cx="32" cy="1020.362" r="32" fill="#595bd4" overflow="visible" class="color34485c svgShape"></circle><path fill="#ffffff" d="m40.13 998.242-.621-2.38-2.38-.62 2.38-.62.62-2.38.62 2.38 2.38.62-2.38.62zM15 1007.355l-.413-1.586-1.587-.414 1.587-.413.413-1.587.414 1.587 1.586.413-1.586.414zM10 1025.112l-.568-2.181-2.182-.569 2.182-.568.568-2.182.568 2.182 2.182.568-2.182.569zM55 1022.862l-.517-1.983-1.984-.517 1.984-.516.516-1.984.517 1.984 1.983.516-1.983.517zM16.502 1001.363l-.31-1.19-1.19-.31 1.19-.31.31-1.19.31 1.19 1.19.31-1.19.31zM53.125 1039.23l-.388-1.488-1.487-.388 1.487-.387.388-1.488.387 1.488 1.488.387-1.488.388zM50.001 1008.862l-.31-1.19-1.19-.31 1.19-.31.31-1.19.31 1.19 1.19.31-1.19.31z" overflow="visible" class="colorffffff svgShape"></path><circle cx="23.643" cy="1026.791" r="9.643" fill="#60c571" overflow="visible" class="color60c5b8 svgShape"></circle><path fill="#53d86a" d="M23.643 1017.148c-1.017 0-2.026.169-2.991.489-.008.039-.023.073-.023.114 0 .334.27.603.603.603h.603a.601.601 0 1 1 0 1.205h-1.206a.601.601 0 0 0-.602.603c0 .333.269.602.602.602h2.411c.334 0 .603.27.603.603a.601.601 0 0 1-.603.603h-3.536a.601.601 0 0 0-.603.602c0 .334.269.603.603.603h1.808c.334 0 .602.269.602.603a.601.601 0 0 1-.602.602h-.603a.601.601 0 1 0 0 1.206h1.187a.601.601 0 1 1 0 1.205h-3.112a.601.601 0 1 0 0 1.205h2.528c.334 0 .602.27.602.603a.601.601 0 0 1-.602.603h-1.206a.601.601 0 1 0 0 1.205h1.206c.334 0 .602.269.602.603a.601.601 0 0 1-.602.602H19.43a.601.601 0 0 0-.603.603c0 .334.269.603.603.603H22.46c.334 0 .602.269.602.603a.601.601 0 0 1-.602.602h-1.229a.601.601 0 0 0-.603.603c0 .334.27.602.603.602h2.41c.335 0 .604.27.604.603a.601.601 0 0 1-.603.603 9.643 9.643 0 0 0 9.643-9.643c0-5.326-4.318-9.643-9.643-9.643z" overflow="visible" class="color25b39e svgShape"></path><path fill="#1da535" d="M26.539 1017.595c-.048.015-.096.026-.143.041-.007.038-.022.073-.022.115 0 .334.269.602.602.602h.603c.334 0 .603.269.603.603a.601.601 0 0 1-.603.603h-1.205a.601.601 0 0 0-.603.602c0 .334.269.603.603.603h2.41c.334 0 .603.269.603.603a.601.601 0 0 1-.603.602h-3.536a.601.601 0 0 0-.602.603c0 .334.269.603.602.603h1.808a.601.601 0 1 1 0 1.205h-.602a.601.601 0 0 0-.603.603c0 .334.269.602.603.602h1.186c.334 0 .603.27.603.603a.601.601 0 0 1-.603.603h-3.112a.601.601 0 0 0-.603.602c0 .334.27.603.603.603h2.528c.334 0 .603.269.603.603a.601.601 0 0 1-.603.602h-1.205a.601.601 0 1 0 0 1.206h1.205a.601.601 0 1 1 0 1.205h-1.88a.601.601 0 0 0-.603.603c0 .334.269.602.602.602H28.206c.333 0 .602.27.602.603a.601.601 0 0 1-.603.603h-1.229a.601.601 0 1 0 0 1.205h1.313a9.643 9.643 0 0 0 4.997-8.437 9.643 9.643 0 0 0-6.747-9.196z" overflow="visible" class="color1da58f svgShape"></path><circle cx="40.357" cy="1017.148" r="3.214" fill="#fcb162" overflow="visible" class="colorfcd062 svgShape"></circle><path fill="#f8a54e" d="M40.357 1013.934a3.18 3.18 0 0 0-.997.163c-.002.013-.007.024-.007.038 0 .112.09.2.2.2h.201a.2.2 0 1 1 0 .403h-.401a.2.2 0 1 0 0 .401H40.156a.2.2 0 1 1 0 .402h-1.178a.2.2 0 1 0 0 .402h.603a.2.2 0 1 1 0 .402h-.2a.2.2 0 1 0 0 .402h.393a.2.2 0 1 1 0 .401h-1.037a.2.2 0 1 0 0 .402h.844a.2.2 0 1 1 0 .402h-.402a.2.2 0 1 0 0 .402h.402a.2.2 0 1 1 0 .402h-.628a.2.2 0 1 0 0 .401h1.01a.2.2 0 1 1 0 .402h-.41a.2.2 0 1 0 0 .402h.804a.2.2 0 1 1 0 .402 3.193 3.193 0 0 0 2.491-1.206h-.695a.2.2 0 1 1 0-.402h.627a.2.2 0 1 0 0-.402h-.401a.2.2 0 1 1 0-.402h.401a.2.2 0 1 0 0-.402l-.371.001h-.472a.2.2 0 1 1 0-.402h1.039a.2.2 0 1 0 0-.402h-.397a.2.2 0 1 1 0-.402h.201a.2.2 0 1 0 0-.402l-.602.001a.2.2 0 1 1 0-.402h.946a3.196 3.196 0 0 0-.278-.402H42.554a.2.2 0 0 1-.2-.2c0-.088.062-.149.14-.176a3.191 3.191 0 0 0-2.137-.829z" overflow="visible" class="colorf8b84e svgShape"></path><g transform="translate(10.143 -310.818) scale(1.28571)" fill="#167ffc" class="color000000 svgShape"><circle cx="10.5" cy="1026.862" r="3.5" fill="#60c571" overflow="visible" class="color60c5b8 svgShape"></circle><circle cx="10.5" cy="1026.862" r="3.5" fill="#e28f37" overflow="visible" class="colore23f37 svgShape"></circle><path fill="#fe9526" d="M10.5 1023.366a.219.219 0 1 0 0 .438h.219a.219.219 0 1 1 0 .438h-.766a.219.219 0 1 0 0 .437h.708a.219.219 0 1 1 0 .438h-.376a.219.219 0 1 0 0 .437h1.311a.219.219 0 1 1 0 .438h-2.19a.219.219 0 1 0 0 .437h1.345a.219.219 0 1 1 0 .438h-.48a.219.219 0 1 0 0 .437h1.73a.219.219 0 1 1 0 .438h-2.8a.219.219 0 1 0 0 .437h1.967a.219.219 0 1 1 0 .438H10.5a.219.219 0 1 0 0 .437h1.313a.219.219 0 1 1 0 .438h-1.635a.219.219 0 1 0 0 .437h.511c.121 0 .219.098.219.219 0 .106-.081.188-.182.208a3.502 3.502 0 0 0 3.274-3.49 3.5 3.5 0 0 0-3.5-3.5z" overflow="visible" class="colorf17f53 svgShape"></path><circle cx="9.406" cy="1029.706" r=".219" fill="#fe9526" overflow="visible" class="colorf17f53 svgShape"></circle><circle cx="8.531" cy="1027.956" r=".219" fill="#fe9526" overflow="visible" class="colorf17f53 svgShape"></circle><circle cx="11.375" cy="1026.643" r=".219" fill="#e28f37" overflow="visible" class="colore23f37 svgShape"></circle><circle cx="11.594" cy="1024.018" r=".219" fill="#e28f37" overflow="visible" class="colore23f37 svgShape"></circle><path fill="#fe9526" d="M9.844 1025.331a.219.219 0 1 1-.438 0 .219.219 0 0 1 .438 0z" overflow="visible" class="colorf17f53 svgShape"></path><path fill="#e28f37" d="M12.25 1028.393a.219.219 0 1 1-.437 0 .219.219 0 0 1 .437 0z" overflow="visible" class="colore23f37 svgShape"></path></g><path fill="#ffffff" d="m17.858 1016.521-.266-1.02-1.02-.266 1.02-.265.266-1.02.265 1.02 1.02.265-1.02.266zM33.286 1013.95l-.266-1.02-1.02-.266 1.02-.266.266-1.02.266 1.02 1.02.266-1.02.265zM38.43 1026.807l-.266-1.02-1.02-.266 1.02-.265.265-1.02.266 1.02 1.02.265-1.02.266zM34.572 1037.093l-.266-1.02-1.02-.266 1.02-.266.266-1.02.266 1.02 1.02.266-1.02.266zM37.143 1006.235l-.266-1.02-1.02-.266 1.02-.266.266-1.02.266 1.02 1.02.266-1.02.266zM17 1041.664l-.265-1.02-1.02-.266 1.02-.265.266-1.02.265 1.02 1.02.265-1.02.266zM38 1046.664l-.266-1.02-1.02-.265 1.02-.266.266-1.02.266 1.02 1.02.266-1.02.265z" overflow="visible" class="colorffffff svgShape"></path></g></svg>